<svg role='img' xmlns="http://www.w3.org/2000/svg" width="100" height="100" viewBox="0 0 500 500" focusable="false" class="chakra-icon css-xr63ev">
    <path d="M237.082,418.052l144.377-124.62,9.119,10.638L399.7,486.441,392.1,491,247.72,477.322l-4.559-6.079Z" fill="hsl(252, 88%, 75%)"></path>
    <path d="M243.161,419.1L376.743,304.07l8.437,9.82,8.437,168.342-7.031,4.209L253,473.815l-4.218-5.611Z" fill="hsl(252, 88%, 45%)"></path>
    <path d="M101.824,340.544l25.836-59.27,13.677-65.35,41.034,4.559L223.4,273.675,341.945,244.8,369.3,281.274,208.207,427.17l-45.593-1.519L136.778,390.7V351.182Z" fill="hsl(252, 88%, 75%)"></path>
    <path d="M112.462,335.985L138.3,282.793l10.638-54.711,28.876,1.52,42.553,54.711,117.021-28.875,19.757,24.316-153.5,139.817-34.954-3.039L145.9,390.7V342.064Z" fill="hsl(252, 88%, 45%)"></path>
    <path d="M0,150.575s350.72-299.5,500-27.356c0.028,40.152-1.52,132.219-1.52,132.219l-74.468,60.79-80.547-97.264-115.5,31.915L189.97,205.286,107.9,200.727v-30.4Z" fill="hsl(252, 88%, 45%)"></path>
    <path d="M12.158,149.055S352.3-129.958,492.4,124.739c0.041,41.754,0,126.14,0,126.14l-66.869,57.75-79.027-98.784L231,243.28l-37.994-47.113L115.5,193.128l-1.52-31.915Z" fill="hsl(252, 88%, 75%)"></path>
    <path d="M161.094,256.958l36.474,7.6,1.52,6.079-36.474,10.639Z" fill="var(--primary-200)"></path>
</svg>